# Blender v2.78 (sub 0) OBJ File: ''
# www.blender.org
mtllib hollowSolid.mtl
o Cube
v 2.552702 -2.552702 -2.552702
v 2.552702 -2.552702 2.552702
v -2.552703 -2.552702 2.552702
v -2.552701 -2.552702 -2.552703
v 2.552704 2.552702 -2.552701
v 2.552701 2.552702 2.552704
v -2.552703 2.552702 2.552701
v -2.552702 2.552702 -2.552702
v 3.254327 -3.254327 -3.254327
v 3.254327 -3.254327 3.254327
v -3.254327 -3.254327 3.254326
v -3.254326 -3.254327 -3.254328
v 3.254328 3.254327 -3.254325
v 3.254325 3.254327 3.254329
v -3.254328 3.254327 3.254326
v -3.254327 3.254327 -3.254327
v 3.254326 1.861353 -0.420610
v 2.552702 1.861353 -0.420610
v 3.254326 1.424543 0.396605
v 2.552702 1.424543 0.396605
v 3.254326 1.322053 0.386511
v 2.552701 1.322053 0.386511
v 3.254326 1.223501 0.356616
v 2.552701 1.223501 0.356616
v 3.254326 0.939184 -0.329784
v 2.552702 0.939184 -0.329784
v 3.254326 0.987732 -0.420610
v 2.552702 0.987732 -0.420610
v 3.254326 0.909289 -0.231233
v 2.552702 0.909289 -0.231233
v 3.254326 1.053065 -0.500220
v 2.552702 1.053065 -0.500220
v 3.254327 1.322052 -0.643996
v 2.552702 1.322052 -0.643996
v 3.254327 1.424542 -0.654091
v 2.552702 1.424542 -0.654091
v 3.254327 1.223500 -0.614101
v 2.552702 1.223500 -0.614101
v 3.254326 1.939796 -0.026252
v 2.552702 1.939796 -0.026252
v 3.254326 1.716410 0.308068
v 2.552702 1.716410 0.308068
v 3.254326 1.949890 -0.128743
v 2.552702 1.949890 -0.128743
v 3.254326 1.909900 0.072299
v 2.552702 1.909900 0.072299
v 3.254327 1.527033 -0.643996
v 2.552702 1.527033 -0.643996
v 3.254326 1.053066 0.242735
v 2.552701 1.053066 0.242735
v 3.254326 1.132676 0.308068
v 2.552701 1.132676 0.308068
v 3.254326 0.987732 0.163125
v 2.552701 0.987732 0.163125
v 3.254326 1.939796 -0.231233
v 2.552702 1.939796 -0.231233
v 3.254326 1.716410 -0.565553
v 2.552702 1.716410 -0.565553
v 3.254326 1.796020 -0.500220
v 2.552702 1.796020 -0.500220
v 3.254326 1.909900 -0.329785
v 2.552702 1.909901 -0.329785
v 3.254326 0.899195 -0.128742
v 2.552702 0.899195 -0.128742
v 3.254326 1.132675 -0.565553
v 2.552702 1.132675 -0.565553
v 3.254326 0.909289 -0.026252
v 2.552702 0.909289 -0.026252
v 3.254326 1.796020 0.242734
v 2.552702 1.796020 0.242734
v 3.254327 1.625584 -0.614101
v 2.552702 1.625584 -0.614101
v 3.254326 1.861353 0.163125
v 2.552702 1.861353 0.163125
v 3.254326 0.939185 0.072300
v 2.552702 0.939185 0.072300
v 3.254326 1.625584 0.356615
v 2.552702 1.625584 0.356615
v 3.254326 1.527033 0.386511
v 2.552702 1.527033 0.386511
v 2.571491 -2.571491 -2.571491
v 2.571491 -2.571491 2.571491
v -2.571492 -2.571491 2.571491
v -2.571490 -2.571491 -2.571492
v 2.571492 2.571491 -2.571490
v 2.571490 2.571491 2.571493
v -2.571492 2.571491 2.571490
v -2.571491 2.571491 -2.571491
v 3.235538 -3.235538 -3.235538
v 3.235538 -3.235538 3.235538
v -3.235538 -3.235538 3.235538
v -3.235537 -3.235538 -3.235539
v 3.235540 3.235538 -3.235536
v 3.235536 3.235538 3.235540
v -3.235539 3.235538 3.235537
v -3.235538 3.235538 -3.235538
v 3.232012 1.881049 -0.433770
v 2.575017 1.881049 -0.433770
v 3.230575 1.424543 0.418851
v 2.576452 1.424543 0.418851
v 3.232011 1.317432 0.409743
v 2.575016 1.317432 0.409743
v 3.232011 1.214437 0.378500
v 2.575016 1.214437 0.378500
v 3.232011 0.917300 -0.338849
v 2.575017 0.917300 -0.338849
v 3.232011 0.968036 -0.433770
v 2.575017 0.968036 -0.433770
v 3.232011 0.886057 -0.235854
v 2.575017 0.886057 -0.235854
v 3.232011 1.036316 -0.516968
v 2.575017 1.036316 -0.516968
v 3.232012 1.317431 -0.667228
v 2.575017 1.317431 -0.667228
v 3.230576 1.424542 -0.676337
v 2.576453 1.424542 -0.676337
v 3.232012 1.214436 -0.635985
v 2.575017 1.214436 -0.635985
v 3.232012 1.963028 -0.021631
v 2.575017 1.963028 -0.021631
v 3.232011 1.729570 0.327763
v 2.575016 1.729570 0.327764
v 3.232012 1.973577 -0.128743
v 2.575017 1.973577 -0.128743
v 3.232011 1.931785 0.081364
v 2.575017 1.931785 0.081364
v 3.232012 1.531654 -0.667228
v 2.575017 1.531654 -0.667228
v 3.232011 1.036317 0.259484
v 2.575016 1.036317 0.259484
v 3.232011 1.119516 0.327764
v 2.575016 1.119516 0.327764
v 3.232011 0.968037 0.176285
v 2.575016 0.968037 0.176285
v 3.232012 1.963028 -0.235854
v 2.575017 1.963028 -0.235854
v 3.232012 1.729570 -0.585249
v 2.575017 1.729570 -0.585249
v 3.232012 1.812768 -0.516969
v 2.575017 1.812768 -0.516969
v 3.232012 1.931785 -0.338849
v 2.575017 1.931785 -0.338849
v 3.232011 0.875508 -0.128742
v 2.575016 0.875508 -0.128742
v 3.232011 1.119515 -0.585249
v 2.575017 1.119515 -0.585249
v 3.232011 0.886057 -0.021631
v 2.575016 0.886057 -0.021631
v 3.232011 1.812769 0.259483
v 2.575016 1.812768 0.259483
v 3.232012 1.634649 -0.635985
v 2.575017 1.634649 -0.635985
v 3.232011 1.881049 0.176284
v 2.575016 1.881049 0.176284
v 3.232011 0.917300 0.081364
v 2.575016 0.917300 0.081364
v 3.232011 1.634649 0.378500
v 2.575016 1.634649 0.378500
v 3.232011 1.531654 0.409743
v 2.575016 1.531654 0.409743
v 2.571491 -2.571491 -2.571491
v 2.571491 -2.571491 2.571491
v -2.571492 -2.571491 2.571491
v -2.571490 -2.571491 -2.571492
v 2.571492 2.571491 -2.571490
v 2.571490 2.571491 2.571493
v -2.571492 2.571491 2.571490
v -2.571491 2.571491 -2.571491
v 3.235538 -3.235538 -3.235538
v 3.235538 -3.235538 3.235538
v -3.235538 -3.235538 3.235538
v -3.235537 -3.235538 -3.235539
v 3.235540 3.235538 -3.235536
v 3.235536 3.235538 3.235540
v -3.235539 3.235538 3.235537
v -3.235538 3.235538 -3.235538
v 3.232012 1.881049 -0.433770
v 2.575017 1.881049 -0.433770
v 3.230575 1.424543 0.418851
v 2.576452 1.424543 0.418851
v 3.232011 1.317432 0.409743
v 2.575016 1.317432 0.409743
v 3.232011 1.214437 0.378500
v 2.575016 1.214437 0.378500
v 3.232011 0.917300 -0.338849
v 2.575017 0.917300 -0.338849
v 3.232011 0.968036 -0.433770
v 2.575017 0.968036 -0.433770
v 3.232011 0.886057 -0.235854
v 2.575017 0.886057 -0.235854
v 3.232011 1.036316 -0.516968
v 2.575017 1.036316 -0.516968
v 3.232012 1.317431 -0.667228
v 2.575017 1.317431 -0.667228
v 3.230576 1.424542 -0.676337
v 2.576453 1.424542 -0.676337
v 3.232012 1.214436 -0.635985
v 2.575017 1.214436 -0.635985
v 3.232012 1.963028 -0.021631
v 2.575017 1.963028 -0.021631
v 3.232011 1.729570 0.327763
v 2.575016 1.729570 0.327764
v 3.232012 1.973577 -0.128743
v 2.575017 1.973577 -0.128743
v 3.232011 1.931785 0.081364
v 2.575017 1.931785 0.081364
v 3.232012 1.531654 -0.667228
v 2.575017 1.531654 -0.667228
v 3.232011 1.036317 0.259484
v 2.575016 1.036317 0.259484
v 3.232011 1.119516 0.327764
v 2.575016 1.119516 0.327764
v 3.232011 0.968037 0.176285
v 2.575016 0.968037 0.176285
v 3.232012 1.963028 -0.235854
v 2.575017 1.963028 -0.235854
v 3.232012 1.729570 -0.585249
v 2.575017 1.729570 -0.585249
v 3.232012 1.812768 -0.516969
v 2.575017 1.812768 -0.516969
v 3.232012 1.931785 -0.338849
v 2.575017 1.931785 -0.338849
v 3.232011 0.875508 -0.128742
v 2.575016 0.875508 -0.128742
v 3.232011 1.119515 -0.585249
v 2.575017 1.119515 -0.585249
v 3.232011 0.886057 -0.021631
v 2.575016 0.886057 -0.021631
v 3.232011 1.812769 0.259483
v 2.575016 1.812768 0.259483
v 3.232012 1.634649 -0.635985
v 2.575017 1.634649 -0.635985
v 3.232011 1.881049 0.176284
v 2.575016 1.881049 0.176284
v 3.232011 0.917300 0.081364
v 2.575016 0.917300 0.081364
v 3.232011 1.634649 0.378500
v 2.575016 1.634649 0.378500
v 3.232011 1.531654 0.409743
v 2.575016 1.531654 0.409743
v 2.552706 -2.552696 -2.552706
v 2.552706 -2.552696 2.552706
v -2.552703 -2.552702 2.552702
v -2.552701 -2.552702 -2.552703
v 2.552711 2.552689 -2.552709
v 2.552708 2.552691 2.552711
v -2.552703 2.552702 2.552701
v -2.552702 2.552702 -2.552702
v 3.254330 -3.254320 -3.254329
v 3.254330 -3.254320 3.254330
v -3.254327 -3.254327 3.254326
v -3.254326 -3.254327 -3.254328
v 3.254332 3.254317 -3.254329
v 3.254329 3.254318 3.254333
v -3.254328 3.254327 3.254326
v -3.254327 3.254327 -3.254327
v 3.254301 1.861316 -0.420624
v 2.552744 1.861291 -0.420634
v 3.254128 1.424530 0.396395
v 2.552899 1.424516 0.396395
v 3.254328 1.321918 0.386487
v 2.552701 1.321921 0.386487
v 3.254324 1.223511 0.356618
v 2.552705 1.223514 0.356618
v 3.254321 0.939190 -0.329786
v 2.552709 0.939191 -0.329787
v 3.254321 0.987738 -0.420612
v 2.552708 0.987740 -0.420613
v 3.254320 0.909294 -0.231235
v 2.552709 0.909296 -0.231235
v 3.254322 1.053074 -0.500222
v 2.552707 1.053076 -0.500222
v 3.254329 1.321917 -0.643972
v 2.552701 1.321920 -0.643972
v 3.254129 1.424531 -0.653881
v 2.552900 1.424518 -0.653881
v 3.254325 1.223511 -0.614103
v 2.552706 1.223513 -0.614104
v 3.254297 1.939766 -0.026246
v 2.552752 1.939747 -0.026242
v 3.254309 1.716359 0.308083
v 2.552730 1.716327 0.308093
v 3.254296 1.949862 -0.128743
v 2.552753 1.949844 -0.128743
v 3.254298 1.909868 0.072311
v 2.552749 1.909846 0.072318
v 3.254324 1.527119 -0.643976
v 2.552709 1.527080 -0.643980
v 3.254322 1.053075 0.242738
v 2.552706 1.053077 0.242739
v 3.254323 1.132686 0.308071
v 2.552706 1.132688 0.308072
v 3.254321 0.987739 0.163127
v 2.552707 0.987740 0.163128
v 3.254297 1.939766 -0.231240
v 2.552752 1.939747 -0.231244
v 3.254310 1.716359 -0.565568
v 2.552730 1.716327 -0.565578
v 3.254304 1.795975 -0.500236
v 2.552738 1.795946 -0.500246
v 3.254298 1.909868 -0.329796
v 2.552749 1.909846 -0.329803
v 3.254320 0.899200 -0.128742
v 2.552709 0.899202 -0.128742
v 3.254323 1.132685 -0.565556
v 2.552706 1.132687 -0.565557
v 3.254320 0.909294 -0.026250
v 2.552709 0.909296 -0.026250
v 3.254304 1.795976 0.242750
v 2.552737 1.795946 0.242760
v 3.254315 1.625529 -0.614113
v 2.552722 1.625492 -0.614120
v 3.254301 1.861316 0.163140
v 2.552743 1.861291 0.163149
v 3.254321 0.939191 0.072302
v 2.552709 0.939192 0.072303
v 3.254314 1.625529 0.356627
v 2.552722 1.625492 0.356634
v 3.254323 1.527119 0.386491
v 2.552709 1.527080 0.386495
vn 0.0000 -1.0000 -0.0000
vn 0.0000 1.0000 0.0000
vn 1.0000 0.0000 0.0000
vn -0.0000 -0.0000 1.0000
vn -1.0000 -0.0000 -0.0000
vn 0.0000 0.0000 -1.0000
vn 0.0000 0.9952 -0.0980
vn 0.0000 0.7730 -0.6344
vn 0.0000 0.8819 -0.4714
vn -0.0000 -0.9952 0.0980
vn -0.0000 0.9569 0.2903
vn -0.0000 0.9952 0.0980
vn 0.0000 0.7730 0.6344
vn 0.0000 -0.0980 0.9952
vn 0.0000 -0.0980 -0.9952
vn -0.0000 -0.8819 0.4714
vn 0.0000 0.0980 -0.9952
vn -0.0000 -0.2903 0.9569
vn 0.0000 0.6344 0.7730
vn 0.0000 -0.4714 -0.8819
vn 0.0000 0.4714 0.8819
vn 0.0000 0.6344 -0.7730
vn 0.0000 -0.6344 0.7730
vn -0.0000 -0.9569 0.2903
vn 0.0000 0.4714 -0.8819
vn 0.0000 -0.6344 -0.7730
vn 0.0000 -0.8819 -0.4714
vn 0.0000 0.0980 0.9952
vn 0.0000 0.8819 0.4714
vn 0.0000 -0.9952 -0.0980
vn 0.0000 0.9569 -0.2903
vn 0.0000 -0.2903 -0.9569
vn -0.0000 -0.4714 0.8819
vn 0.0000 0.2903 0.9569
vn 0.0000 0.2903 -0.9569
vn 0.0000 -0.9569 -0.2903
vn 0.0000 -0.7730 0.6344
vn 0.0000 -0.7730 -0.6344
vn 1.0000 -0.0006 0.0000
vn -1.0000 -0.0005 -0.0000
vn 0.0000 -0.0847 0.9964
vn 0.0000 -0.0847 -0.9964
vn 0.0000 0.0847 -0.9964
vn 0.0000 0.0847 0.9964
vn -1.0000 0.0027 -0.0000
vn 1.0000 0.0045 0.0000
vn 0.0000 -0.0961 0.9954
vn 0.0000 -0.0961 -0.9954
vn -0.0000 0.0961 -0.9954
vn -0.0000 -0.2904 0.9569
vn -0.0000 0.6343 0.7730
vn -0.0000 0.4713 0.8820
vn -0.0000 0.4713 -0.8820
vn -0.0000 0.0961 0.9954
vn -0.0000 -0.2904 -0.9569
vn -0.0000 0.2904 0.9569
vn -0.0000 0.2904 -0.9569
vn -1.0000 0.0001 -0.0000
vn 1.0000 0.0001 0.0000
usemtl Material
s off
f 1//1 2//1 3//1 4//1
f 5//2 8//2 7//2 6//2
f 1//3 5//3 36//3 34//3 38//3 66//3 32//3 28//3 26//3 30//3 64//3 68//3 76//3 54//3 50//3 52//3 24//3 22//3 20//3 6//3 2//3
f 2//4 6//4 7//4 3//4
f 3//5 7//5 8//5 4//5
f 5//6 1//6 4//6 8//6
f 9//2 12//2 11//2 10//2
f 13//1 14//1 15//1 16//1
f 9//5 10//5 14//5 19//5 21//5 23//5 51//5 49//5 53//5 75//5 67//5 63//5 29//5 25//5 27//5 31//5 65//5 37//5 33//5 35//5 13//5
f 10//6 11//6 15//6 14//6
f 11//3 12//3 16//3 15//3
f 13//4 16//4 12//4 9//4
f 56//7 44//7 43//7 55//7
f 60//8 18//8 17//8 59//8
f 18//9 62//9 61//9 17//9
f 68//10 64//10 63//10 67//10
f 40//11 46//11 45//11 39//11
f 44//12 40//12 39//12 43//12
f 74//13 70//13 69//13 73//13
f 20//14 22//14 21//14 19//14
f 34//15 36//15 35//15 33//15
f 54//16 76//16 75//16 53//16
f 36//17 48//17 47//17 35//17
f 22//18 24//18 23//18 21//18
f 70//19 42//19 41//19 69//19
f 66//20 38//20 37//20 65//20
f 42//21 78//21 77//21 41//21
f 58//22 60//22 59//22 57//22
f 52//23 50//23 49//23 51//23
f 76//24 68//24 67//24 75//24
f 72//25 58//25 57//25 71//25
f 32//26 66//26 65//26 31//26
f 26//27 28//27 27//27 25//27
f 80//28 20//28 19//28 79//28
f 46//29 74//29 73//29 45//29
f 64//30 30//30 29//30 63//30
f 62//31 56//31 55//31 61//31
f 38//32 34//32 33//32 37//32
f 24//33 52//33 51//33 23//33
f 78//34 80//34 79//34 77//34
f 48//35 72//35 71//35 47//35
f 30//36 26//36 25//36 29//36
f 50//37 54//37 53//37 49//37
f 28//38 32//38 31//38 27//38
f 14//5 13//5 35//5 47//5 71//5 57//5 59//5 17//5 61//5 55//5 43//5 39//5 45//5 73//5 69//5 41//5 77//5 79//5 19//5
f 5//3 6//3 20//3 80//3 78//3 42//3 70//3 74//3 46//3 40//3 44//3 56//3 62//3 18//3 60//3 58//3 72//3 48//3 36//3
f 81//1 82//1 83//1 84//1
f 85//2 88//2 87//2 86//2
f 81//39 85//39 116//39 114//39 118//39 146//39 112//39 108//39 106//39 110//39 144//39 148//39 156//39 134//39 130//39 132//39 104//39 102//39 100//39 86//39 82//39
f 82//4 86//4 87//4 83//4
f 83//5 87//5 88//5 84//5
f 85//6 81//6 84//6 88//6
f 89//2 92//2 91//2 90//2
f 93//1 94//1 95//1 96//1
f 89//40 90//40 94//40 99//40 101//40 103//40 131//40 129//40 133//40 155//40 147//40 143//40 109//40 105//40 107//40 111//40 145//40 117//40 113//40 115//40 93//40
f 90//6 91//6 95//6 94//6
f 91//3 92//3 96//3 95//3
f 93//4 96//4 92//4 89//4
f 136//7 124//7 123//7 135//7
f 140//8 98//8 97//8 139//8
f 98//9 142//9 141//9 97//9
f 148//10 144//10 143//10 147//10
f 120//11 126//11 125//11 119//11
f 124//12 120//12 119//12 123//12
f 154//13 150//13 149//13 153//13
f 100//41 102//41 101//41 99//41
f 114//42 116//42 115//42 113//42
f 134//16 156//16 155//16 133//16
f 116//43 128//43 127//43 115//43
f 102//18 104//18 103//18 101//18
f 150//19 122//19 121//19 149//19
f 146//20 118//20 117//20 145//20
f 122//21 158//21 157//21 121//21
f 138//22 140//22 139//22 137//22
f 132//23 130//23 129//23 131//23
f 156//24 148//24 147//24 155//24
f 152//25 138//25 137//25 151//25
f 112//26 146//26 145//26 111//26
f 106//27 108//27 107//27 105//27
f 160//44 100//44 99//44 159//44
f 126//29 154//29 153//29 125//29
f 144//30 110//30 109//30 143//30
f 142//31 136//31 135//31 141//31
f 118//32 114//32 113//32 117//32
f 104//33 132//33 131//33 103//33
f 158//34 160//34 159//34 157//34
f 128//35 152//35 151//35 127//35
f 110//36 106//36 105//36 109//36
f 130//37 134//37 133//37 129//37
f 108//38 112//38 111//38 107//38
f 94//45 93//45 115//45 127//45 151//45 137//45 139//45 97//45 141//45 135//45 123//45 119//45 125//45 153//45 149//45 121//45 157//45 159//45 99//45
f 85//46 86//46 100//46 160//46 158//46 122//46 150//46 154//46 126//46 120//46 124//46 136//46 142//46 98//46 140//46 138//46 152//46 128//46 116//46
f 161//1 162//1 163//1 164//1
f 165//2 168//2 167//2 166//2
f 161//39 165//39 196//39 194//39 198//39 226//39 192//39 188//39 186//39 190//39 224//39 228//39 236//39 214//39 210//39 212//39 184//39 182//39 180//39 166//39 162//39
f 162//4 166//4 167//4 163//4
f 163//5 167//5 168//5 164//5
f 165//6 161//6 164//6 168//6
f 169//2 172//2 171//2 170//2
f 173//1 174//1 175//1 176//1
f 169//40 170//40 174//40 179//40 181//40 183//40 211//40 209//40 213//40 235//40 227//40 223//40 189//40 185//40 187//40 191//40 225//40 197//40 193//40 195//40 173//40
f 170//6 171//6 175//6 174//6
f 171//3 172//3 176//3 175//3
f 173//4 176//4 172//4 169//4
f 216//7 204//7 203//7 215//7
f 220//8 178//8 177//8 219//8
f 178//9 222//9 221//9 177//9
f 228//10 224//10 223//10 227//10
f 200//11 206//11 205//11 199//11
f 204//12 200//12 199//12 203//12
f 234//13 230//13 229//13 233//13
f 180//41 182//41 181//41 179//41
f 194//42 196//42 195//42 193//42
f 214//16 236//16 235//16 213//16
f 196//43 208//43 207//43 195//43
f 182//18 184//18 183//18 181//18
f 230//19 202//19 201//19 229//19
f 226//20 198//20 197//20 225//20
f 202//21 238//21 237//21 201//21
f 218//22 220//22 219//22 217//22
f 212//23 210//23 209//23 211//23
f 236//24 228//24 227//24 235//24
f 232//25 218//25 217//25 231//25
f 192//26 226//26 225//26 191//26
f 186//27 188//27 187//27 185//27
f 240//44 180//44 179//44 239//44
f 206//29 234//29 233//29 205//29
f 224//30 190//30 189//30 223//30
f 222//31 216//31 215//31 221//31
f 198//32 194//32 193//32 197//32
f 184//33 212//33 211//33 183//33
f 238//34 240//34 239//34 237//34
f 208//35 232//35 231//35 207//35
f 190//36 186//36 185//36 189//36
f 210//37 214//37 213//37 209//37
f 188//38 192//38 191//38 187//38
f 174//45 173//45 195//45 207//45 231//45 217//45 219//45 177//45 221//45 215//45 203//45 199//45 205//45 233//45 229//45 201//45 237//45 239//45 179//45
f 165//46 166//46 180//46 240//46 238//46 202//46 230//46 234//46 206//46 200//46 204//46 216//46 222//46 178//46 220//46 218//46 232//46 208//46 196//46
f 241//1 242//1 243//1 244//1
f 245//2 248//2 247//2 246//2
f 241//3 245//3 276//3 274//3 278//3 306//3 272//3 268//3 266//3 270//3 304//3 308//3 316//3 294//3 290//3 292//3 264//3 262//3 260//3 246//3 242//3
f 242//4 246//4 247//4 243//4
f 243//5 247//5 248//5 244//5
f 245//6 241//6 244//6 248//6
f 249//2 252//2 251//2 250//2
f 253//1 254//1 255//1 256//1
f 249//5 250//5 254//5 259//5 261//5 263//5 291//5 289//5 293//5 315//5 307//5 303//5 269//5 265//5 267//5 271//5 305//5 277//5 273//5 275//5 253//5
f 250//6 251//6 255//6 254//6
f 251//3 252//3 256//3 255//3
f 253//4 256//4 252//4 249//4
f 296//7 284//7 283//7 295//7
f 300//8 258//8 257//8 299//8
f 258//9 302//9 301//9 257//9
f 308//10 304//10 303//10 307//10
f 280//11 286//11 285//11 279//11
f 284//12 280//12 279//12 283//12
f 314//13 310//13 309//13 313//13
f 260//47 262//47 261//47 259//47
f 274//48 276//48 275//48 273//48
f 294//16 316//16 315//16 293//16
f 276//49 288//49 287//49 275//49
f 262//50 264//50 263//50 261//50
f 310//51 282//51 281//51 309//51
f 306//20 278//20 277//20 305//20
f 282//52 318//52 317//52 281//52
f 298//22 300//22 299//22 297//22
f 292//23 290//23 289//23 291//23
f 316//24 308//24 307//24 315//24
f 312//53 298//53 297//53 311//53
f 272//26 306//26 305//26 271//26
f 266//27 268//27 267//27 265//27
f 320//54 260//54 259//54 319//54
f 286//29 314//29 313//29 285//29
f 304//30 270//30 269//30 303//30
f 302//31 296//31 295//31 301//31
f 278//55 274//55 273//55 277//55
f 264//33 292//33 291//33 263//33
f 318//56 320//56 319//56 317//56
f 288//57 312//57 311//57 287//57
f 270//36 266//36 265//36 269//36
f 290//37 294//37 293//37 289//37
f 268//38 272//38 271//38 267//38
f 254//58 253//58 275//58 287//58 311//58 297//58 299//58 257//58 301//58 295//58 283//58 279//58 285//58 313//58 309//58 281//58 317//58 319//58 259//58
f 245//59 246//59 260//59 320//59 318//59 282//59 310//59 314//59 286//59 280//59 284//59 296//59 302//59 258//59 300//59 298//59 312//59 288//59 276//59
